<mxfile host="app.diagrams.net" modified="2021-07-27T07:06:52.875Z" agent="5.0 (Macintosh; Intel Mac OS X 10_15_7) AppleWebKit/537.36 (KHTML, like Gecko) Chrome/91.0.4472.114 Safari/537.36" etag="aPj35TBeTImaoC2FhRZ3" version="14.8.4" type="github">
  <diagram id="53Y-01zWzBL3yiK1s56i" name="Page-1">
    <mxGraphModel dx="2066" dy="769" grid="1" gridSize="10" guides="1" tooltips="1" connect="1" arrows="1" fold="1" page="1" pageScale="1" pageWidth="850" pageHeight="1100" math="0" shadow="0">
      <root>
        <mxCell id="0" />
        <mxCell id="1" parent="0" />
        <mxCell id="50lklCHc5W1sMrXra8Ou-2" value="&lt;b&gt;&lt;font style=&quot;font-size: 13px&quot;&gt;DeePMD-kit&lt;/font&gt;&lt;/b&gt;" style="rounded=1;whiteSpace=wrap;html=1;fillColor=#6a00ff;strokeColor=#3700CC;fontColor=#ffffff;strokeWidth=5;" vertex="1" parent="1">
          <mxGeometry x="30" y="240" width="770" height="30" as="geometry" />
        </mxCell>
        <mxCell id="50lklCHc5W1sMrXra8Ou-10" value="" style="group" vertex="1" connectable="0" parent="1">
          <mxGeometry x="30" y="270" width="580" height="200" as="geometry" />
        </mxCell>
        <mxCell id="50lklCHc5W1sMrXra8Ou-5" value="" style="rounded=0;whiteSpace=wrap;html=1;strokeWidth=5;fillColor=#1ba1e2;strokeColor=#006EAF;fontColor=#ffffff;" vertex="1" parent="50lklCHc5W1sMrXra8Ou-10">
          <mxGeometry width="580" height="200" as="geometry" />
        </mxCell>
        <mxCell id="50lklCHc5W1sMrXra8Ou-6" value="&lt;span style=&quot;font-family: &amp;#34;helvetica&amp;#34; ; font-size: 12px ; font-style: normal ; letter-spacing: normal ; text-align: center ; text-indent: 0px ; text-transform: none ; word-spacing: 0px ; display: inline ; float: none ; background-color: rgb(128 , 128 , 128)&quot;&gt;飞桨自定义算子API&lt;/span&gt;" style="rounded=0;whiteSpace=wrap;html=1;strokeWidth=5;fontStyle=1;fillColor=#647687;strokeColor=#314354;fontColor=#ffffff;" vertex="1" parent="50lklCHc5W1sMrXra8Ou-10">
          <mxGeometry width="156.15384615384613" height="50" as="geometry" />
        </mxCell>
        <mxCell id="50lklCHc5W1sMrXra8Ou-8" value="&lt;b&gt;&lt;font style=&quot;font-size: 13px&quot;&gt;飞桨组网API&lt;/font&gt;&lt;/b&gt;" style="rounded=0;whiteSpace=wrap;html=1;strokeWidth=5;fillColor=#647687;strokeColor=#314354;fontColor=#ffffff;" vertex="1" parent="50lklCHc5W1sMrXra8Ou-10">
          <mxGeometry x="156.15384615384613" width="423.8461538461538" height="50" as="geometry" />
        </mxCell>
        <mxCell id="50lklCHc5W1sMrXra8Ou-9" value="&lt;b&gt;量化&lt;/b&gt;" style="rounded=0;whiteSpace=wrap;html=1;strokeWidth=5;fillColor=#b1ddf0;strokeColor=#10739e;" vertex="1" parent="50lklCHc5W1sMrXra8Ou-10">
          <mxGeometry x="446.1557446808511" y="10" width="96.82297872340425" height="30" as="geometry" />
        </mxCell>
        <mxCell id="50lklCHc5W1sMrXra8Ou-7" value="飞桨核心框架" style="text;html=1;strokeColor=none;fillColor=none;align=center;verticalAlign=middle;whiteSpace=wrap;rounded=0;fontStyle=1;fontSize=15;fontColor=#FFFFFF;" vertex="1" parent="50lklCHc5W1sMrXra8Ou-10">
          <mxGeometry x="211.9230769230769" y="120" width="156.15384615384613" height="20" as="geometry" />
        </mxCell>
        <mxCell id="50lklCHc5W1sMrXra8Ou-11" value="&lt;b&gt;飞桨套件体系&lt;/b&gt;" style="rounded=0;whiteSpace=wrap;html=1;fontSize=15;strokeWidth=5;fillColor=#647687;strokeColor=#314354;fontColor=#ffffff;" vertex="1" parent="1">
          <mxGeometry x="610" y="270" width="190" height="200" as="geometry" />
        </mxCell>
        <mxCell id="50lklCHc5W1sMrXra8Ou-12" value="Interpert DL" style="rounded=0;whiteSpace=wrap;html=1;fontSize=15;strokeWidth=5;fillColor=#b1ddf0;strokeColor=#10739e;" vertex="1" parent="1">
          <mxGeometry x="620" y="280" width="170" height="45" as="geometry" />
        </mxCell>
      </root>
    </mxGraphModel>
  </diagram>
</mxfile>
